<svg width="325" height="21" viewBox="0 0 325 21" fill="none" xmlns="http://www.w3.org/2000/svg">
<line y1="10" x2="139" y2="10" stroke="#E1E8EB"/>
<path d="M157.336 16.192C156.216 16.192 155.235 15.9467 154.392 15.456C153.56 14.9653 152.904 14.288 152.424 13.424C151.955 12.5493 151.72 11.5413 151.72 10.4C151.72 9.25867 151.955 8.256 152.424 7.392C152.904 6.51733 153.56 5.83467 154.392 5.344C155.235 4.85333 156.216 4.608 157.336 4.608C158.445 4.608 159.421 4.85333 160.264 5.344C161.107 5.83467 161.763 6.51733 162.232 7.392C162.701 8.256 162.936 9.25867 162.936 10.4C162.936 11.5413 162.701 12.5493 162.232 13.424C161.763 14.288 161.107 14.9653 160.264 15.456C159.421 15.9467 158.445 16.192 157.336 16.192ZM157.336 14.352C158.403 14.352 159.251 14 159.88 13.296C160.52 12.592 160.84 11.6267 160.84 10.4C160.84 9.17333 160.52 8.208 159.88 7.504C159.251 6.8 158.403 6.448 157.336 6.448C156.269 6.448 155.416 6.8 154.776 7.504C154.136 8.208 153.816 9.17333 153.816 10.4C153.816 11.6267 154.136 12.592 154.776 13.296C155.416 14 156.269 14.352 157.336 14.352ZM164.744 16V4.8H168.856C169.752 4.8 170.488 4.95467 171.064 5.264C171.651 5.56267 172.088 5.97333 172.376 6.496C172.664 7.008 172.808 7.57867 172.808 8.208C172.808 8.89067 172.627 9.51467 172.264 10.08C171.912 10.6453 171.358 11.056 170.6 11.312L172.92 16H170.568L168.488 11.584H166.792V16H164.744ZM166.792 10.08H168.728C169.411 10.08 169.912 9.91467 170.232 9.584C170.552 9.25333 170.712 8.816 170.712 8.272C170.712 7.73867 170.552 7.312 170.232 6.992C169.923 6.672 169.416 6.512 168.712 6.512H166.792V10.08Z" fill="#B0B8BF"/>
<path d="M186 10.5H325" stroke="#E1E8EB"/>
</svg>
